<svg xmlns="http://www.w3.org/2000/svg" viewBox="0 0 512 512"><g data-name="Envelope open"><g data-name="&lt;Group&gt;"><path fill="#488a9b" d="M474.92,184c.15.15.28.3.42.46L269.4,351.4a17.32,17.32,0,0,1-24.61,0L42,183.57a16.81,16.81,0,0,1,1.54-1.47,17.16,17.16,0,0,0,10.38,3.4h408.2a17,17,0,0,0,10.59-3.67A14.73,14.73,0,0,1,474.92,184Z"/><path fill="#78d0f1" d="M54.62,178a17,17,0,0,0-11.07,4.06,4.52,4.52,0,0,1-.49-.39A17,17,0,0,1,53.64,178Z"/><path fill="#78d0f1" d="M272,12.13,474.74,180a16.81,16.81,0,0,1-1.54,1.47,17.16,17.16,0,0,0-10.38-3.4H53.64a17,17,0,0,0-10.58,3.67,14.79,14.79,0,0,1-2.22-2.22L247.35,12.13A17.32,17.32,0,0,1,272,12.13Z"/><path fill="#488a9b" d="M472.72,181.83A17.08,17.08,0,0,0,461.84,178h1a17.16,17.16,0,0,1,10.38,3.4Z"/><path fill="#488a9b" d="M461.84,178a17.08,17.08,0,0,1,10.88,3.79,17,17,0,0,1-10.59,3.67H53.93a17.16,17.16,0,0,1-10.38-3.4A17,17,0,0,1,54.62,178Z"/><path fill="#78d0f1" d="M42,183.57,244.78,351.4a17.32,17.32,0,0,0,24.61,0l205.95-166.9a16.42,16.42,0,0,1,4,10.94v291A17.47,17.47,0,0,1,461.84,504H53.64a17.44,17.44,0,0,1-17.41-17.53v-291A17.06,17.06,0,0,1,41,183.57a17.38,17.38,0,0,1,2-1.86,4.52,4.52,0,0,0,.49.39A16.81,16.81,0,0,0,42,183.57Z"/><path fill="#488a9b" d="M475.9,184l-.56.46c-.14-.16-.27-.31-.42-.46a14.73,14.73,0,0,0-2.21-2.22l.48-.39A15.15,15.15,0,0,1,475.9,184Z"/><path fill="none" stroke="#231f20" stroke-linecap="round" stroke-linejoin="round" stroke-width="15" d="M43.06,181.7a14.79,14.79,0,0,1-2.22-2.22L247.35,12.13a17.32,17.32,0,0,1,24.61,0L474.74,180a16.81,16.81,0,0,1-1.54,1.47l-.48.39a17,17,0,0,1-10.59,3.67H53.93a17.16,17.16,0,0,1-10.38-3.4A4.52,4.52,0,0,1,43.06,181.7Z"/><path fill="none" stroke="#231f20" stroke-linecap="round" stroke-linejoin="round" stroke-width="15" d="M472.72,181.83a14.73,14.73,0,0,1,2.21,2.22c.15.15.28.3.42.46a16.42,16.42,0,0,1,4,10.94v291A17.47,17.47,0,0,1,461.84,504H53.64a17.44,17.44,0,0,1-17.41-17.53v-291A17.06,17.06,0,0,1,41,183.57a17.38,17.38,0,0,1,2-1.86"/><path fill="none" stroke="#231f20" stroke-linecap="round" stroke-linejoin="round" stroke-width="15" d="M473.2,181.44A15.15,15.15,0,0,1,475.9,184l-.56.46L269.4,351.4a17.32,17.32,0,0,1-24.61,0L42,183.57a16.81,16.81,0,0,1,1.54-1.47"/></g></g></svg>